# xmcd
#
# Track frame offsets: 
#        183
#        12373
#        28945
#        40233
#        53125
#        65440
#        79068
#        91630
#        103178
#        114155
#        127638
#        139115
#        150318
#        162225
#        175123
#        193193
#        209418
#        220203
#
# Disc length: 3110 seconds
#
# Revision: 5
# Processed by: cddbd v1.5.2PL0 Copyright (c) Steve Scherf et al.
# Submitted via: ExactAudioCopyFreeDBPlugin 1.0
#
DISCID=e90c2412
DTITLE=Frank Frost - Down Home Blues
DYEAR=1962
DGENRE=Blues
TTITLE0=Everything's Alright
TTITLE1=Lucky To Be Living
TTITLE2=Jelly Roll King
TTITLE3=Baby You're So Kind
TTITLE4=Big Boss Man
TTITLE5=So Tired Of Living By Myself
TTITLE6=Now What You Gonna Do
TTITLE7=My Back Scratcher
TTITLE8=Never Leave Me at Home
TTITLE9=Harpin' on It
TTITLE10=Things You Do
TTITLE11=Feel Good Babe
TTITLE12=Ride With Your Daddy Tonight
TTITLE13=Got My Mojo Working
TTITLE14=Didn't Mean To Harm
TTITLE15=Five Long Years
TTITLE16=Pocket Full of Money
TTITLE17=Harp and Soul
EXTD=YEAR: 1962
EXTT0=
EXTT1=
EXTT2=
EXTT3=
EXTT4=
EXTT5=
EXTT6=
EXTT7=
EXTT8=
EXTT9=
EXTT10=
EXTT11=
EXTT12=
EXTT13=
EXTT14=
EXTT15=
EXTT16=
EXTT17=
PLAYORDER=
